<svg id="Capa_1" enable-background="new 0 0 511.868 511.868" height="512" viewBox="0 0 511.868 511.868" width="512" xmlns="http://www.w3.org/2000/svg"><g><path d="m364.965 0h-218.062c-15.228 0-27.617 12.389-27.617 27.617v375.257c0 15.228 12.389 27.617 27.617 27.617h25.418v13.564c0 13.821 11.245 25.066 25.066 25.066h26.421v35.247c0 4.142 3.358 7.5 7.5 7.5s7.5-3.358 7.5-7.5v-35.247h34.249v35.247c0 4.142 3.358 7.5 7.5 7.5s7.5-3.358 7.5-7.5v-35.247h25.421c13.822 0 25.066-11.245 25.066-25.066v-13.564h26.418c15.228 0 27.617-12.389 27.617-27.617v-375.257c.002-15.228-12.386-27.617-27.614-27.617zm-41.419 444.055c0 5.55-4.516 10.066-10.066 10.066h-116.092c-5.551 0-10.066-4.516-10.066-10.066v-13.564h136.225v13.564zm54.035-41.181c0 6.957-5.66 12.617-12.617 12.617h-218.061c-6.957 0-12.617-5.66-12.617-12.617v-375.257c0-6.957 5.66-12.617 12.617-12.617h218.062c6.957 0 12.617 5.66 12.617 12.617v375.257z"/><path d="m355.081 30h-198.295c-4.142 0-7.5 3.358-7.5 7.5v355.491c0 4.142 3.358 7.5 7.5 7.5h198.295c4.142 0 7.5-3.358 7.5-7.5v-158.45c0-4.142-3.358-7.5-7.5-7.5s-7.5 3.358-7.5 7.5v150.95h-183.295v-340.491h183.295v157.579c0 4.142 3.358 7.5 7.5 7.5s7.5-3.358 7.5-7.5v-165.079c0-4.142-3.358-7.5-7.5-7.5z"/><path d="m255.934 53.277c-42.661 0-77.368 34.707-77.368 77.368 0 11.874 2.628 23.277 7.811 33.895 1.817 3.723 6.309 5.267 10.03 3.45 3.722-1.817 5.267-6.308 3.45-10.03-4.174-8.551-6.291-17.741-6.291-27.314 0-34.39 27.978-62.368 62.368-62.368s62.368 27.978 62.368 62.368-27.978 62.368-62.368 62.368c-13.696 0-26.697-4.361-37.596-12.612-3.303-2.5-8.007-1.849-10.507 1.453-2.5 3.303-1.849 8.007 1.453 10.507 13.527 10.24 29.659 15.652 46.65 15.652 42.661 0 77.368-34.707 77.368-77.368s-34.708-77.369-77.368-77.369z"/><path d="m201.448 343.304c-2.915 2.943-2.892 7.692.052 10.606 14.585 14.444 33.917 22.399 54.434 22.399 42.661 0 77.368-34.707 77.368-77.368s-34.707-77.368-77.368-77.368-77.368 34.707-77.368 77.368c0 7.826 1.167 15.553 3.469 22.966 1.228 3.957 5.432 6.168 9.386 4.939 3.956-1.228 6.167-5.431 4.939-9.386-1.854-5.972-2.794-12.203-2.794-18.519 0-34.39 27.978-62.368 62.368-62.368s62.368 27.978 62.368 62.368-27.978 62.368-62.368 62.368c-16.538 0-32.121-6.413-43.879-18.057-2.942-2.913-7.691-2.892-10.607.052z"/><path d="m216.397 139.734c-3.793 1.664-5.52 6.088-3.855 9.881 7.567 17.25 24.6 28.396 43.392 28.396s35.825-11.146 43.392-28.396c1.664-3.793-.062-8.217-3.855-9.881-3.792-1.664-8.217.062-9.881 3.855-5.176 11.798-16.816 19.422-29.656 19.422s-24.48-7.624-29.656-19.422c-1.663-3.792-6.088-5.519-9.881-3.855z"/><path d="m230.096 114.498c4.142 0 7.5-3.358 7.5-7.5v-8.967c0-4.142-3.358-7.5-7.5-7.5s-7.5 3.358-7.5 7.5v8.967c0 4.142 3.358 7.5 7.5 7.5z"/><path d="m289.271 106.998v-8.967c0-4.142-3.358-7.5-7.5-7.5s-7.5 3.358-7.5 7.5v8.967c0 4.142 3.358 7.5 7.5 7.5s7.5-3.358 7.5-7.5z"/><path d="m222.156 323.696c-2.901 2.956-2.857 7.705.099 10.606 2.957 2.901 7.705 2.856 10.606-.099 6.145-6.261 14.339-9.708 23.073-9.708s16.928 3.448 23.073 9.708c1.469 1.496 3.41 2.246 5.353 2.246 1.896 0 3.793-.714 5.253-2.147 2.956-2.902 3-7.65.099-10.606-8.989-9.157-20.985-14.201-33.778-14.201s-24.789 5.044-33.778 14.201z"/><path d="m245.675 274.499-19.75-14.761c-3.319-2.48-8.018-1.8-10.498 1.517-2.48 3.318-1.8 8.018 1.517 10.498l6.076 4.541v8.844c0 4.142 3.358 7.5 7.5 7.5 3.438 0 6.329-2.316 7.215-5.471 1.087.565 2.269.84 3.444.84 2.285 0 4.541-1.04 6.013-3.01 2.48-3.319 1.8-8.019-1.517-10.498z"/><path d="m270.689 288.006c1.174 0 2.357-.276 3.444-.841.886 3.155 3.777 5.471 7.215 5.471 4.142 0 7.5-3.358 7.5-7.5v-8.844l6.076-4.541c3.317-2.479 3.997-7.18 1.517-10.498-2.479-3.317-7.179-3.996-10.498-1.517l-19.75 14.761c-3.317 2.479-3.997 7.18-1.517 10.498 1.473 1.972 3.729 3.011 6.013 3.011z"/><path d="m447.812 79.909h-32.73c-4.142 0-7.5 3.358-7.5 7.5s3.358 7.5 7.5 7.5h32.73c.198 0 .358.161.358.358v20.836c0 22.729-14.333 43.247-35.667 51.056-3.89 1.424-5.889 5.731-4.465 9.621 1.113 3.039 3.985 4.924 7.043 4.924.856 0 1.727-.147 2.578-.459 27.221-9.965 45.511-36.144 45.511-65.142v-20.835c0-8.469-6.889-15.359-15.358-15.359z"/><path d="m96.786 79.909h-32.73c-8.469 0-15.358 6.89-15.358 15.358v20.836c0 28.999 18.29 55.178 45.511 65.142.851.312 1.721.459 2.578.459 3.058 0 5.931-1.885 7.043-4.924 1.424-3.89-.575-8.197-4.465-9.621-21.333-7.809-35.667-28.327-35.667-51.056v-20.835c0-.198.161-.358.358-.358h32.73c4.142 0 7.5-3.358 7.5-7.5s-3.358-7.501-7.5-7.501z"/><path d="m447.812 258.245h-32.73c-4.142 0-7.5 3.358-7.5 7.5s3.358 7.5 7.5 7.5h32.73c.198 0 .358.161.358.358v20.836c0 22.729-14.333 43.247-35.667 51.056-3.89 1.424-5.889 5.731-4.465 9.621 1.112 3.039 3.985 4.924 7.043 4.924.856 0 1.727-.147 2.578-.459 27.221-9.964 45.511-36.143 45.511-65.142v-20.836c0-8.469-6.889-15.358-15.358-15.358z"/><path d="m64.056 273.245h32.73c4.142 0 7.5-3.358 7.5-7.5s-3.358-7.5-7.5-7.5h-32.73c-8.469 0-15.358 6.89-15.358 15.358v20.836c0 28.999 18.29 55.178 45.511 65.142.851.312 1.721.459 2.578.459 3.058 0 5.931-1.885 7.043-4.924 1.424-3.89-.575-8.197-4.465-9.621-21.333-7.809-35.667-28.327-35.667-51.056v-20.836c0-.198.16-.358.358-.358z"/></g></svg>