<svg id="_x33_0" enable-background="new 0 0 64 64" height="512" viewBox="0 0 64 64" width="512" xmlns="http://www.w3.org/2000/svg"><g><path d="m29 19c0 1.654 1.346 3 3 3s3-1.346 3-3c0-.462-.113-.894-.301-1.285l2.008-2.008-1.414-1.414-2.008 2.008c-.391-.188-.823-.301-1.285-.301s-.894.113-1.285.301l-3.008-3.008-1.414 1.414 3.008 3.008c-.188.391-.301.823-.301 1.285zm3-1c.551 0 1 .448 1 1s-.449 1-1 1-1-.448-1-1 .449-1 1-1z"/><path d="m46 19c0-7.72-6.28-14-14-14s-14 6.28-14 14 6.28 14 14 14 14-6.28 14-14zm-21.707 6.293-1.448 1.448c-1.569-1.852-2.582-4.183-2.795-6.741h1.95v-2h-1.949c.213-2.558 1.226-4.888 2.795-6.741l1.448 1.448 1.414-1.414-1.448-1.448c1.852-1.568 4.182-2.582 6.74-2.794v1.949h2v-1.949c2.558.213 4.888 1.226 6.741 2.795l-1.448 1.448 1.414 1.414 1.448-1.448c1.569 1.852 2.582 4.183 2.795 6.741h-1.95v2h1.949c-.213 2.558-1.226 4.888-2.795 6.741l-1.448-1.448-1.414 1.414 1.448 1.448c-1.852 1.569-4.183 2.582-6.741 2.795v-1.951h-2v1.949c-2.558-.213-4.888-1.226-6.741-2.795l1.448-1.448z"/><path d="m48 49c-.621 0-1.439.257-2.132.526-.282-2.093-1.068-5.526-2.868-5.526-1.212 0-4.609 2.026-6.576 3.906-.136-.301-.277-.6-.424-.898v-10.472c8.004-1.825 14-8.987 14-17.536 0-9.925-8.075-18-18-18s-18 8.075-18 18c0 8.549 5.996 15.711 14 17.536v10.472c-.147.298-.288.597-.424.898-1.967-1.88-5.364-3.906-6.576-3.906-1.8 0-2.586 3.433-2.867 5.526-.694-.269-1.512-.526-2.133-.526-2 0-2 2.701-2 4 0 5.084 2.916 8 8 8 1.757 0 2.954-.591 3.725-1.204.973 1.538 2.929 3.204 6.275 3.204s5.302-1.666 6.275-3.204c.771.613 1.968 1.204 3.725 1.204 5.084 0 8-2.916 8-8 0-1.299 0-4-2-4zm-5.187-2.951c.501.722 1.187 3.291 1.187 4.951 0 4.746-3.925 6-6 6-.568 0-1.043-.041-1.449-.101.901-1.049 1.449-2.41 1.449-3.899 0-.697-.291-1.815-.748-3.073 1.265-1.537 4.525-3.529 5.561-3.878zm-14.813 6.951c0-2.115 2.793-7.357 4-8.769 1.207 1.411 4 6.653 4 8.769 0 2.206-1.794 4-4 4s-4-1.794-4-4zm-12-34c0-8.822 7.178-16 16-16s16 7.178 16 16-7.178 16-16 16-16-7.178-16-16zm14 17.882c.658.073 1.323.118 2 .118s1.342-.045 2-.118v6.749c-.731-.98-1.439-1.631-2-1.631s-1.269.651-2 1.631zm-8.818 9.175c1.096.376 4.312 2.347 5.566 3.87-.457 1.258-.748 2.376-.748 3.073 0 1.489.548 2.85 1.449 3.899-.406.06-.881.101-1.449.101-2.075 0-6-1.254-6-6 0-1.654.681-4.21 1.182-4.943zm-5.182 6.943c0-1.201.088-1.745.182-1.984.46.07 1.225.359 1.852.637.267 4.141 3.017 6.262 5.686 7.014-.446.19-1.002.333-1.72.333-3.981 0-6-2.019-6-6zm16 8c-2.514 0-3.817-1.16-4.461-2.095.824-.105 1.459-.282 1.934-.471.769.36 1.623.566 2.527.566s1.758-.206 2.527-.566c.475.188 1.109.366 1.932.47-.645.934-1.948 2.096-4.459 2.096zm10-2c-.719 0-1.274-.143-1.72-.333 2.669-.752 5.419-2.874 5.686-7.015.626-.278 1.391-.567 1.852-.636.094.239.182.783.182 1.984 0 3.981-2.019 6-6 6z"/><path d="m24 38h2v4h-2z"/><path d="m20 40h2v2h-2z"/><path d="m20 36h2v2h-2z"/><path d="m16 36h2v4h-2z"/><path d="m16 42h2v4h-2z"/><path d="m16 32h2v2h-2z"/><path d="m38 38h2v4h-2z"/><path d="m42 40h2v2h-2z"/><path d="m42 36h2v2h-2z"/><path d="m46 36h2v4h-2z"/><path d="m46 42h2v4h-2z"/><path d="m46 32h2v2h-2z"/></g></svg>