<?xml version="1.0" encoding="iso-8859-1"?>
<!-- Generator: Adobe Illustrator 19.0.0, SVG Export Plug-In . SVG Version: 6.00 Build 0)  -->
<svg version="1.1" id="Layer_1" xmlns="http://www.w3.org/2000/svg" xmlns:xlink="http://www.w3.org/1999/xlink" x="0px" y="0px"
	 viewBox="0 0 512 512" style="enable-background:new 0 0 512 512;" xml:space="preserve">
<g>
	<g>
		<path d="M503.83,473.872c-4.513,0-8.17,3.657-8.17,8.17v13.617H16.34v-13.617c0-4.513-3.657-8.17-8.17-8.17S0,477.529,0,482.043
			v21.787c0,4.513,3.657,8.17,8.17,8.17h495.66c4.513,0,8.17-3.657,8.17-8.17v-21.787C512,477.529,508.343,473.872,503.83,473.872z"
			/>
	</g>
</g>
<g>
	<g>
		<path d="M503.83,419.404c-4.513,0-8.17,3.657-8.17,8.17v13.617H16.34v-13.617c0-4.513-3.657-8.17-8.17-8.17S0,423.061,0,427.574
			v21.787c0,4.513,3.657,8.17,8.17,8.17h495.66c4.513,0,8.17-3.657,8.17-8.17v-21.787C512,423.061,508.343,419.404,503.83,419.404z"
			/>
	</g>
</g>
<g>
	<g>
		<path d="M503.83,0H8.17C3.657,0,0,3.657,0,8.17v386.723c0,4.513,3.657,8.17,8.17,8.17h495.66c4.513,0,8.17-3.657,8.17-8.17V8.17
			C512,3.657,508.343,0,503.83,0z M495.66,386.723H16.34V16.34H495.66V386.723z"/>
	</g>
</g>
<g>
	<g>
		<path d="M256,76.255c-28.531,0-51.745,23.213-51.745,51.745c0,28.531,23.213,51.745,51.745,51.745s51.745-23.213,51.745-51.745
			C307.745,99.469,284.531,76.255,256,76.255z M256,163.404c-19.522,0-35.404-15.882-35.404-35.404S236.478,92.596,256,92.596
			s35.404,15.882,35.404,35.404S275.522,163.404,256,163.404z"/>
	</g>
</g>
<g>
	<g>
		<path d="M471.149,32.681H40.851c-4.513,0-8.17,3.657-8.17,8.17v65.362c0,4.513,3.657,8.17,8.17,8.17s8.17-3.657,8.17-8.17V49.021
			h413.957v206.317l-93.626-93.626c-3.192-3.19-8.364-3.19-11.555,0L256,263.508L154.202,161.711c-3.194-3.191-8.366-3.189-11.555,0
			l-93.626,93.627V138.894c0-4.513-3.657-8.17-8.17-8.17s-8.17,3.657-8.17,8.17v223.319c0,4.513,3.657,8.17,8.17,8.17h430.298
			c4.513,0,8.17-3.657,8.17-8.17V40.851C479.319,36.338,475.662,32.681,471.149,32.681z M363.574,179.043l55.169,55.17H308.406
			L363.574,179.043z M148.426,179.043l55.17,55.17H93.257L148.426,179.043z M462.979,354.043H49.021v-75.594l27.895-27.895h143.018
			l30.278,30.278c0.021,0.021,54.479,54.479,54.479,54.479c1.596,1.595,3.688,2.392,5.778,2.392c2.092,0,4.182-0.797,5.778-2.392
			c3.191-3.192,3.191-8.364,0-11.555l-48.691-48.691l24.511-24.511h143.018l27.894,27.895V354.043z"/>
	</g>
</g>
<g>
</g>
<g>
</g>
<g>
</g>
<g>
</g>
<g>
</g>
<g>
</g>
<g>
</g>
<g>
</g>
<g>
</g>
<g>
</g>
<g>
</g>
<g>
</g>
<g>
</g>
<g>
</g>
<g>
</g>
</svg>
