<?xml version="1.0" encoding="iso-8859-1"?>
<!-- Generator: Adobe Illustrator 19.0.0, SVG Export Plug-In . SVG Version: 6.00 Build 0)  -->
<svg version="1.1" id="Capa_1" xmlns="http://www.w3.org/2000/svg" xmlns:xlink="http://www.w3.org/1999/xlink" x="0px" y="0px"
	 viewBox="0 0 512.004 512.004" style="enable-background:new 0 0 512.004 512.004;" xml:space="preserve">
<g>
	<g>
		<g>
			<path d="M338.833,125.503l2.5-2.5v39.134c0,4.713,3.82,8.533,8.533,8.533s8.533-3.82,8.533-8.533v-39.133l2.5,2.5
				c2.151,2.178,5.304,3.037,8.262,2.251c2.958-0.786,5.269-3.097,6.055-6.055c0.786-2.958-0.073-6.111-2.251-8.262l-17.064-17.064
				c-3.34-3.319-8.732-3.319-12.072,0l-17.063,17.064c-3.281,3.341-3.256,8.701,0.054,12.012
				C330.132,128.76,335.492,128.784,338.833,125.503z"/>
			<path d="M151.1,125.503l2.5-2.5v39.134c0,4.713,3.82,8.533,8.533,8.533s8.533-3.82,8.533-8.533v-39.133l2.5,2.5
				c3.338,3.296,8.711,3.279,12.029-0.038c3.317-3.317,3.334-8.691,0.038-12.029l-17.064-17.064c-3.34-3.319-8.732-3.319-12.072,0
				l-17.063,17.064c-3.281,3.341-3.256,8.701,0.054,12.012C142.399,128.76,147.759,128.784,151.1,125.503z"/>
			<path d="M244.966,48.703l2.5-2.5v39.134c0,4.713,3.82,8.533,8.533,8.533s8.533-3.821,8.533-8.533V46.204l2.5,2.5
				c3.338,3.296,8.711,3.279,12.029-0.038c3.317-3.317,3.334-8.691,0.038-12.029l-17.064-17.064c-3.34-3.319-8.732-3.319-12.072,0
				L232.9,36.637c-3.281,3.341-3.256,8.701,0.054,12.012C236.265,51.96,241.626,51.984,244.966,48.703z"/>
			<path d="M507.183,0.854c-4.243-2.053-9.347-0.277-11.4,3.967L388.238,227.072c-14.544-7.637-30.517-12.167-46.904-13.303V196.27
				c0-4.713-3.821-8.533-8.533-8.533c-4.713,0-8.533,3.82-8.533,8.533v17.499c-12.755,0.871-25.286,3.799-37.107,8.671l-6.46-12.919
				c-2.114-4.204-7.232-5.903-11.441-3.799c-4.209,2.104-5.92,7.218-3.826,11.432l6.514,13.028
				c-26.036,15.463-45.252,40.212-53.783,69.267l-39.3-14.526c0.109-1.109,0.335-2.183,0.335-3.319
				c0.048-15.388-10.208-28.906-25.04-33.005c-14.832-4.099-30.574,2.233-38.436,15.462s-5.9,30.082,4.791,41.151L17.067,473.323
				V366.937h17.067c4.713,0,8.533-3.82,8.533-8.533s-3.82-8.533-8.533-8.533H17.067v-17.067h17.067c4.713,0,8.533-3.82,8.533-8.533
				s-3.82-8.533-8.533-8.533H17.067V298.67h17.067c4.713,0,8.533-3.82,8.533-8.533s-3.82-8.533-8.533-8.533H17.067v-17.067h17.067
				c4.713,0,8.533-3.82,8.533-8.533s-3.82-8.533-8.533-8.533H17.067v-17.067h17.067c4.713,0,8.533-3.82,8.533-8.533
				s-3.82-8.533-8.533-8.533H17.067V196.27h17.067c4.713,0,8.533-3.82,8.533-8.533s-3.82-8.533-8.533-8.533H17.067v-17.067h17.067
				c4.713,0,8.533-3.821,8.533-8.533c0-4.713-3.82-8.533-8.533-8.533H17.067v-17.067h17.067c4.713,0,8.533-3.821,8.533-8.533
				s-3.82-8.533-8.533-8.533H17.067V93.87h17.067c4.713,0,8.533-3.821,8.533-8.533s-3.82-8.533-8.533-8.533H17.067V29.137
				l19.567,19.566c3.341,3.281,8.701,3.256,12.012-0.054s3.335-8.671,0.054-12.012L14.569,2.506
				c-2.444-2.43-6.108-3.153-9.292-1.835C2.093,1.989,0.012,5.091,0,8.537V503.47c0.044,0.315,0.107,0.627,0.188,0.934
				c0.055,0.579,0.17,1.152,0.345,1.707c0.507,1.59,1.499,2.982,2.836,3.981c0.218,0.229,0.449,0.445,0.693,0.646
				c0.247,0.123,0.5,0.234,0.758,0.332c0.255,0.128,0.516,0.243,0.783,0.343c0.931,0.368,1.92,0.568,2.921,0.591l0.005,0l0.003,0
				H435.2c4.713,0,8.533-3.82,8.533-8.533s-3.82-8.533-8.533-8.533h-34.133v-8.533c0-4.713-3.821-8.533-8.533-8.533
				c-4.713,0-8.533,3.82-8.533,8.533v8.533h-17.067v-8.533c0-4.713-3.82-8.533-8.533-8.533s-8.533,3.82-8.533,8.533v8.533H332.8
				v-8.533c0-4.713-3.82-8.533-8.533-8.533s-8.533,3.82-8.533,8.533v8.533h-17.067v-8.533c0-4.713-3.82-8.533-8.533-8.533
				s-8.533,3.82-8.533,8.533v8.533h-17.067v-8.533c0-4.713-3.82-8.533-8.533-8.533s-8.533,3.82-8.533,8.533v8.533H230.4v-8.533
				c0-4.713-3.82-8.533-8.533-8.533s-8.533,3.82-8.533,8.533v8.533h-17.067v-8.533c0-4.713-3.82-8.533-8.533-8.533
				s-8.533,3.82-8.533,8.533v8.533h-17.067v-8.533c0-4.713-3.821-8.533-8.533-8.533c-4.713,0-8.533,3.82-8.533,8.533v8.533H128
				v-8.533c0-4.713-3.82-8.533-8.533-8.533s-8.533,3.82-8.533,8.533v8.533H93.867v-8.533c0-4.713-3.821-8.533-8.533-8.533
				s-8.533,3.82-8.533,8.533v8.533H59.733v-8.533c0-4.713-3.82-8.533-8.533-8.533s-8.533,3.82-8.533,8.533v8.533H23.802
				l111.293-180.859c3.221,1.052,6.583,1.612,9.972,1.659c11.201-0.012,21.681-5.525,28.036-14.748l41.503,15.34
				c-8.162,57.948,26.873,113.273,82.747,130.67c55.874,17.397,116.124-8.26,142.301-60.599s10.569-115.936-36.866-150.209
				L511.15,12.254C513.203,8.01,511.427,2.906,507.183,0.854z M145.067,298.67c-9.426,0-17.067-7.641-17.067-17.067
				c0.009-9.422,7.645-17.057,17.067-17.067c9.426,0,17.067,7.641,17.067,17.067C162.133,291.029,154.492,298.67,145.067,298.67z
				 M435.2,332.804c0,56.554-45.846,102.4-102.4,102.4c-56.554,0-102.4-45.846-102.4-102.4c0.065-56.527,45.873-102.335,102.4-102.4
				C389.354,230.404,435.2,276.25,435.2,332.804z"/>
			<path d="M247.467,332.804c0.052,47.107,38.227,85.281,85.333,85.333c47.128,0,85.333-38.205,85.333-85.333
				c0-47.128-38.205-85.333-85.333-85.333C285.672,247.47,247.467,285.675,247.467,332.804z M401.067,332.804
				c0,37.703-30.564,68.267-68.267,68.267c-37.703,0-68.267-30.564-68.267-68.267c0.043-37.685,30.582-68.224,68.267-68.267
				C370.503,264.537,401.067,295.101,401.067,332.804z"/>
			<path d="M324.267,290.137v42.667c0.001,2.263,0.9,4.433,2.5,6.033l25.6,25.6c3.341,3.281,8.701,3.256,12.012-0.054
				c3.311-3.311,3.335-8.671,0.054-12.012l-23.1-23.1v-39.133c0-4.713-3.821-8.533-8.533-8.533
				C328.087,281.604,324.267,285.424,324.267,290.137z"/>
		</g>
	</g>
</g>
<g>
</g>
<g>
</g>
<g>
</g>
<g>
</g>
<g>
</g>
<g>
</g>
<g>
</g>
<g>
</g>
<g>
</g>
<g>
</g>
<g>
</g>
<g>
</g>
<g>
</g>
<g>
</g>
<g>
</g>
</svg>
