<svg height="512" viewBox="0 0 64 64" width="512" xmlns="http://www.w3.org/2000/svg"><g id="picture-gallery-photo-computer-laptop"><path d="m58.38 61h-52.76a2 2 0 0 1 -1.93-2.53l5.31-19.47h46l5.31 19.47a2 2 0 0 1 -1.93 2.53z" fill="#c6c5ca"/><path d="m58.38 61h-4a2 2 0 0 0 1.93-2.53l-5.31-19.47h4l5.31 19.47a2 2 0 0 1 -1.93 2.53z" fill="#acabb1"/><path d="m53 9a2.006 2.006 0 0 1 2 2v28h-46v-28a2.006 2.006 0 0 1 2-2z" fill="#46f8ff"/><path d="m55 11v28h-4v-28a2.006 2.006 0 0 0 -2-2h4a2.006 2.006 0 0 1 2 2z" fill="#00d7df"/><path d="m40 53 1 4h-18l1-4z" fill="#898890"/><path d="m41 57h-4l-1-4h4z" fill="#787680"/><rect fill="#a78966" height="26" rx="2" width="38" x="13" y="3"/><path d="m51 5v22a2.006 2.006 0 0 1 -2 2h-4a2.006 2.006 0 0 0 2-2v-22a2.006 2.006 0 0 0 -2-2h4a2.006 2.006 0 0 1 2 2z" fill="#806749"/><path d="m17 7h30v18h-30z" fill="#57a4ff"/><path d="m43 7h4v18h-4z" fill="#2488ff"/><path d="m47 25h-10l-5-5 5-5z" fill="#b6eb92"/><path d="m47 25h-4l-8-8 2-2z" fill="#91dc5a"/><circle cx="32" cy="12" fill="#ff3051" r="2"/><path d="m37 25h-20l10-10z" fill="#91dc5a"/><path d="m37 25h-4l-8-8 2-2z" fill="#5eac24"/><path d="m61.28 58.21-5.28-19.34v-27.87a3.009 3.009 0 0 0 -3-3h-1v-3a3.009 3.009 0 0 0 -3-3h-34a3.009 3.009 0 0 0 -3 3v3h-1a3.009 3.009 0 0 0 -3 3v27.87l-5.28 19.34a3 3 0 0 0 2.9 3.79h52.76a3 3 0 0 0 2.9-3.79zm-47.28-53.21a1 1 0 0 1 1-1h34a1 1 0 0 1 1 1v22a1 1 0 0 1 -1 1h-34a1 1 0 0 1 -1-1zm-4 6a1 1 0 0 1 1-1h1v17a3.009 3.009 0 0 0 3 3h34a3.009 3.009 0 0 0 3-3v-17h1a1 1 0 0 1 1 1v27h-44zm49.18 48.61a.99.99 0 0 1 -.8.39h-52.76a.99.99 0 0 1 -.8-.39 1 1 0 0 1 -.17-.87l5.11-18.74h44.48l5.11 18.74a1 1 0 0 1 -.17.87z"/><path d="m40.97 52.758a1 1 0 0 0 -.97-.758h-16a1 1 0 0 0 -.97.758l-1 4a1 1 0 0 0 .97 1.242h18a1 1 0 0 0 .97-1.242zm-16.689 3.242.5-2h14.438l.5 2z"/><path d="m27 34h10v2h-10z"/><path d="m12 42h4v2h-4z"/><path d="m18 42h4v2h-4z"/><path d="m24 42h4v2h-4z"/><path d="m36 42h4v2h-4z"/><path d="m42 42h4v2h-4z"/><path d="m48 42h4v2h-4z"/><path d="m30 42h4v2h-4z"/><path d="m12 46h4v2h-4z"/><path d="m18 46h4v2h-4z"/><path d="m24 46h4v2h-4z"/><path d="m36 46h4v2h-4z"/><path d="m42 46h4v2h-4z"/><path d="m48 46h4v2h-4z"/><path d="m30 46h4v2h-4z"/><path d="m47 6h-30a1 1 0 0 0 -1 1v18a1 1 0 0 0 1 1h30a1 1 0 0 0 1-1v-18a1 1 0 0 0 -1-1zm-27.59 18 7.59-7.59 3.59 3.59-4 4zm10 0 2.59-2.59 2.59 2.59zm8 0-4-4 3.59-3.59 7.59 7.59zm8.59-1.41-8.29-8.3a1.008 1.008 0 0 0 -1.42 0l-4.29 4.3-4.29-4.3a1.008 1.008 0 0 0 -1.42 0l-8.29 8.3v-14.59h28z"/><path d="m32 15a3 3 0 1 0 -3-3 3 3 0 0 0 3 3zm0-4a1 1 0 1 1 -1 1 1 1 0 0 1 1-1z"/></g></svg>