<?xml version="1.0" encoding="iso-8859-1"?>
<!-- Generator: Adobe Illustrator 19.0.0, SVG Export Plug-In . SVG Version: 6.00 Build 0)  -->
<svg version="1.1" id="Layer_1" xmlns="http://www.w3.org/2000/svg" xmlns:xlink="http://www.w3.org/1999/xlink" x="0px" y="0px"
	 viewBox="0 0 512 512" style="enable-background:new 0 0 512 512;" xml:space="preserve">
<circle style="fill:#E1EFFA;" cx="256" cy="256" r="256"/>
<path style="fill:#BCD4E8;" d="M509.248,293.389L391.877,176.01l-1.18-1.172c-0.077-0.084-0.156-0.161-0.233-0.197
	c-1.06-0.709-2.317-1.137-3.653-1.137H250.255c-1.298,0-2.504,0.397-3.525,1.062l-23.043-23.04l-0.005-0.01
	c-0.189-0.197-0.379-0.387-0.576-0.573l-0.161-0.161c-0.156-0.159-0.312-0.315-0.471-0.433c-0.166-0.141-0.371-0.246-0.548-0.381
	c-0.305-0.228-0.612-0.453-0.937-0.658c-0.397-0.248-0.804-0.461-1.226-0.666c-0.317-0.161-0.632-0.323-0.963-0.453
	c-0.494-0.2-1.011-0.34-1.528-0.481c-0.292-0.077-0.573-0.182-0.868-0.238c-0.837-0.161-1.692-0.259-2.563-0.259h-68.006
	c-7.46,0-13.576,6.121-13.576,13.617v28.605c-8.515,10.478-13.617,23.857-13.617,38.451c0,14.561,5.064,27.948,13.617,38.461v14.044
	h6-5.455c-1.411,0-2.785,0.556-3.84,1.61c-1.062,1.06-1.613,2.437-1.613,3.848v51.679c0,1.375,0.55,2.788,1.613,3.848l9.298,9.3
	v0.504c0,3.738,1.531,7.15,4.004,9.623l149.437,149.43C400.76,496.929,492.559,407.391,509.248,293.389z"/>
<path style="fill:#5D6D7E;" d="M145.851,147.215c-7.473,0-13.596,6.124-13.596,13.599v190.38c0,7.478,6.124,13.596,13.596,13.596
	h67.996c7.475,0,13.596-6.118,13.596-13.596v-190.38c0-7.473-6.121-13.599-13.596-13.599H145.851z"/>
<rect x="145.851" y="147.226" style="fill:#FF9D4D;" width="67.996" height="217.572"/>
<g>
	<path style="fill:#34495E;" d="M238.321,276.856c0,1.393-0.532,2.783-1.595,3.835c-1.065,1.068-2.452,1.595-3.845,1.595h-5.44
		V173.504h5.44c1.39,0,2.78,0.532,3.845,1.595c1.065,1.065,1.595,2.452,1.595,3.848V276.856z"/>
	<path style="fill:#34495E;" d="M393.336,275.771c0,3.581-2.934,6.518-6.525,6.518H250.286c-3.589,0-6.525-2.934-6.525-6.518
		v-95.741c0-3.581,2.934-6.525,6.525-6.525h136.525c3.589,0,6.525,2.941,6.525,6.525V275.771z"/>
</g>
<rect x="257.357" y="192.538" style="fill:#CEE2F2;" width="122.383" height="76.15"/>
<rect x="238.31" y="208.845" style="fill:#283A4D;" width="5.443" height="38.072"/>
<polygon style="fill:#F1FAFE;" points="282.934,268.69 356.045,268.69 279.892,192.54 257.357,192.54 257.357,243.118 "/>
<circle style="fill:#34495E;" cx="179.84" cy="227.891" r="61.194"/>
<path style="fill:#283A4D;" d="M233.554,227.894c0,29.663-24.046,53.709-53.706,53.709c-29.663,0-53.706-24.049-53.706-53.709
	c0-29.655,24.044-53.704,53.706-53.704C209.508,174.193,233.554,198.241,233.554,227.894z"/>
<circle style="fill:#CEE2F2;" cx="179.84" cy="227.891" r="49.126"/>
<circle style="fill:#B8D1E6;" cx="179.84" cy="227.891" r="23.752"/>
<g>
	<path style="fill:#F1FAFE;" d="M174.147,193.728c6.264,6.267,4.972,17.723-2.893,25.582c-7.852,7.859-19.308,9.144-25.572,2.883
		c-6.264-6.269-4.974-17.708,2.888-25.574C156.424,188.754,167.875,187.466,174.147,193.728z"/>
	<path style="fill:#F1FAFE;" d="M215.485,248.42c3.328,3.325,2.642,9.403-1.531,13.586c-4.178,4.165-10.253,4.854-13.583,1.531
		c-3.333-3.328-2.644-9.413,1.528-13.591C206.075,245.775,212.157,245.092,215.485,248.42z"/>
</g>
<g>
	<path style="fill:#34495E;" d="M170.332,342.932c-0.699,0-1.398,0.279-1.928,0.801c-0.53,0.535-0.799,1.236-0.799,1.925
		c0,0.694,0.266,1.39,0.799,1.925c0.53,0.532,1.229,0.794,1.928,0.794h57.108v-5.443h-57.108V342.932z"/>
	<path style="fill:#34495E;" d="M121.375,337.503c0,1.393,0.532,2.783,1.595,3.85c1.062,1.052,2.455,1.58,3.848,1.58h5.437v-62.548
		h6-5.437c-1.393,0-2.788,0.533-3.848,1.6c-1.06,1.06-1.595,2.452-1.595,3.835V337.503z"/>
</g>
<path style="fill:#FFFFFF;" d="M162.017,159.309c0,2.243-1.825,4.078-4.076,4.078c-2.25,0-4.078-1.833-4.078-4.078
	c0-2.26,1.825-4.088,4.078-4.088C160.192,155.223,162.017,157.048,162.017,159.309z"/>
<g>
</g>
<g>
</g>
<g>
</g>
<g>
</g>
<g>
</g>
<g>
</g>
<g>
</g>
<g>
</g>
<g>
</g>
<g>
</g>
<g>
</g>
<g>
</g>
<g>
</g>
<g>
</g>
<g>
</g>
</svg>
